<svg width="1200" height="760" viewBox="0 0 1200 760" fill="none" xmlns="http://www.w3.org/2000/svg" role="img" aria-labelledby="title desc">
  <title id="title">ATM governance layers</title>
  <desc id="desc">A five-layer pyramid-style diagram showing ATM governance from soft guidance at the top to hard enforcement at the bottom.</desc>
  <defs>
    <linearGradient id="bg" x1="120" y1="60" x2="1080" y2="700" gradientUnits="userSpaceOnUse">
      <stop stop-color="#FFF8ED"/>
      <stop offset="1" stop-color="#F4FBF7"/>
    </linearGradient>
    <filter id="shadow" x="120" y="116" width="960" height="534" filterUnits="userSpaceOnUse" color-interpolation-filters="sRGB">
      <feDropShadow dx="0" dy="14" stdDeviation="18" flood-color="#0F172A" flood-opacity="0.12"/>
    </filter>
    <style>
      .eyebrow { font: 700 18px 'Segoe UI', Arial, sans-serif; letter-spacing: 0.08em; fill: #B45309; }
      .headline { font: 700 48px 'Segoe UI', Arial, sans-serif; fill: #0F172A; }
      .sub { font: 400 22px 'Segoe UI', Arial, sans-serif; fill: #334155; }
      .layer-title { font: 700 28px 'Segoe UI', Arial, sans-serif; fill: #0F172A; }
      .layer-body { font: 400 20px 'Segoe UI', Arial, sans-serif; fill: #334155; }
      .side-note { font: 700 18px 'Segoe UI', Arial, sans-serif; fill: #475569; }
      .badge { font: 700 18px 'Segoe UI', Arial, sans-serif; fill: #0F172A; }
    </style>
  </defs>

  <rect width="1200" height="760" rx="32" fill="url(#bg)"/>

  <text x="120" y="86" class="eyebrow">ATM GOVERNANCE MODEL</text>
  <text x="120" y="146" class="headline">Soft guidance at the top.</text>
  <text x="120" y="198" class="headline">Hard enforcement at the bottom.</text>
  <text x="120" y="244" class="sub">ATM works across all five layers, but the strongest guarantees come from the host environment.</text>

  <g filter="url(#shadow)">
    <polygon points="340,320 860,320 812,382 388,382" fill="#FED7AA"/>
    <polygon points="300,388 900,388 842,456 358,456" fill="#FDE68A"/>
    <polygon points="258,462 942,462 872,536 328,536" fill="#BFDBFE"/>
    <polygon points="214,542 986,542 902,624 298,624" fill="#A7F3D0"/>
    <polygon points="170,630 1030,630 930,720 270,720" fill="#86EFAC"/>
  </g>

  <g>
    <text x="600" y="360" text-anchor="middle" class="layer-title">Prompt Layer</text>
    <text x="600" y="390" text-anchor="middle" class="layer-body">AGENTS.md, skills, playbooks</text>
    <text x="600" y="416" text-anchor="middle" class="layer-body">Guides the agent</text>

    <text x="600" y="430" text-anchor="middle" class="layer-title">Tool Layer</text>
    <text x="600" y="460" text-anchor="middle" class="layer-body">Editor hooks and integrations</text>
    <text x="600" y="486" text-anchor="middle" class="layer-body">Can block writes when supported</text>

    <text x="600" y="506" text-anchor="middle" class="layer-title">Git Layer</text>
    <text x="600" y="536" text-anchor="middle" class="layer-body">pre-commit and pre-push</text>
    <text x="600" y="562" text-anchor="middle" class="layer-body">Can block commits and pushes</text>

    <text x="600" y="590" text-anchor="middle" class="layer-title">CI Layer</text>
    <text x="600" y="620" text-anchor="middle" class="layer-body">Remote validators</text>
    <text x="600" y="646" text-anchor="middle" class="layer-body">Can block merges</text>

    <text x="600" y="684" text-anchor="middle" class="layer-title">Permission Layer</text>
    <text x="600" y="714" text-anchor="middle" class="layer-body">Filesystem, sandbox, branch protection</text>
    <text x="600" y="740" text-anchor="middle" class="layer-body">The real hard boundary</text>
  </g>

  <g>
    <rect x="948" y="328" width="132" height="42" rx="21" fill="#FFF7ED"/>
    <text x="1014" y="356" text-anchor="middle" class="badge">SOFTER</text>

    <rect x="936" y="666" width="144" height="42" rx="21" fill="#F0FDF4"/>
    <text x="1008" y="694" text-anchor="middle" class="badge">HARDER</text>
  </g>

  <g>
    <text x="120" y="676" class="side-note">ATM adds routing, scope, and evidence across the stack.</text>
    <text x="120" y="706" class="side-note">The host still owns the hardest enforcement controls.</text>
  </g>
</svg>
