<svg width="1200" height="760" viewBox="0 0 1200 760" fill="none" xmlns="http://www.w3.org/2000/svg" role="img" aria-labelledby="title desc">
  <title id="title">ATM governance layers</title>
  <desc id="desc">A five-layer pyramid-style diagram showing ATM governance from soft guidance at the top to hard enforcement at the bottom.</desc>
  <defs>
    <linearGradient id="bg" x1="120" y1="60" x2="1080" y2="700" gradientUnits="userSpaceOnUse">
      <stop stop-color="#FFF8ED"/>
      <stop offset="1" stop-color="#F4FBF7"/>
    </linearGradient>
    <filter id="shadow" x="120" y="116" width="960" height="534" filterUnits="userSpaceOnUse" color-interpolation-filters="sRGB">
      <feDropShadow dx="0" dy="14" stdDeviation="18" flood-color="#0F172A" flood-opacity="0.12"/>
    </filter>
    <style>
      .eyebrow { font: 700 18px 'Segoe UI', Arial, sans-serif; letter-spacing: 0.12em; fill: #C2410C; }
      .headline { font: 700 60px 'Segoe UI', Arial, sans-serif; fill: #0F172A; }
      .sub { font: 400 24px 'Segoe UI', Arial, sans-serif; fill: #334155; }
      .layer-title { font: 700 30px 'Segoe UI', Arial, sans-serif; fill: #0F172A; }
      .layer-body { font: 700 17px 'Segoe UI', Arial, sans-serif; letter-spacing: 0.08em; fill: #475569; }
      .badge { font: 700 18px 'Segoe UI', Arial, sans-serif; fill: #0F172A; }
    </style>
  </defs>

  <rect width="1200" height="760" rx="32" fill="url(#bg)"/>

  <text x="120" y="86" class="eyebrow">ATM GOVERNANCE MODEL</text>
  <text x="120" y="156" class="headline">How ATM holds the line.</text>
  <text x="120" y="206" class="sub">From gentle guidance to hard enforcement.</text>

  <g filter="url(#shadow)">
    <polygon points="340,270 860,270 812,338 388,338" fill="#FED7AA"/>
    <polygon points="300,346 900,346 842,420 358,420" fill="#FDE68A"/>
    <polygon points="258,428 942,428 872,508 328,508" fill="#BFDBFE"/>
    <polygon points="214,516 986,516 902,602 298,602" fill="#A7F3D0"/>
    <polygon points="170,610 1030,610 930,704 270,704" fill="#86EFAC"/>
  </g>

  <g>
    <text x="600" y="312" text-anchor="middle" class="layer-title">Prompt Layer</text>
    <text x="600" y="338" text-anchor="middle" class="layer-body">GUIDE</text>

    <text x="600" y="390" text-anchor="middle" class="layer-title">Tool Layer</text>
    <text x="600" y="416" text-anchor="middle" class="layer-body">BLOCK WRITES</text>

    <text x="600" y="474" text-anchor="middle" class="layer-title">Git Layer</text>
    <text x="600" y="500" text-anchor="middle" class="layer-body">BLOCK COMMIT AND PUSH</text>

    <text x="600" y="566" text-anchor="middle" class="layer-title">CI Layer</text>
    <text x="600" y="592" text-anchor="middle" class="layer-body">BLOCK MERGE</text>

    <text x="600" y="664" text-anchor="middle" class="layer-title">Permission Layer</text>
    <text x="600" y="690" text-anchor="middle" class="layer-body">HARD BOUNDARY</text>
  </g>

  <g>
    <rect x="948" y="278" width="132" height="42" rx="21" fill="#FFF7ED"/>
    <text x="1014" y="306" text-anchor="middle" class="badge">SOFTER</text>

    <rect x="936" y="646" width="144" height="42" rx="21" fill="#F0FDF4"/>
    <text x="1008" y="674" text-anchor="middle" class="badge">HARDER</text>
  </g>
</svg>
